<?xml version="1.0" encoding="UTF-8" standalone="no"?>
<!-- Created with Inkscape (http://www.inkscape.org/) -->

<svg
   width="16"
   height="16"
   viewBox="0 0 16 16"
   version="1.1"
   id="svg1"
   xmlns="http://www.w3.org/2000/svg"
   xmlns:svg="http://www.w3.org/2000/svg">
  <defs
     id="defs1" />
  <path
     d="m 2.6953125,3.8183594 c -0.2556191,0 -0.5111627,0.0971 -0.7070313,0.2929687 -0.3917371,0.3917372 -0.3917371,1.0223254 0,1.4140625 L 3.171875,6.7089844 1.5546875,7.1425781 C 1.0195646,7.2859639 0.7042705,7.8320646 0.84765625,8.3671875 0.991042,8.9023104 1.5371427,9.2176045 2.0722656,9.0742188 L 5.3300781,8.2011719 c 0.3607769,-0.09667 0.6212215,-0.376857 0.7089844,-0.7128907 -0.00891,0.029979 -0.021176,0.05889 -0.033203,0.087891 C 6.0221861,7.5356956 6.0360747,7.4949588 6.046875,7.453125 6.1323322,7.1221145 6.0473073,6.7562917 5.7871094,6.4960937 L 3.4023438,4.1113281 C 3.2064752,3.9154595 2.9509316,3.8183594 2.6953125,3.8183594 Z M 7.2929687,7.2929687 A 1,1 0 0 0 7.0351562,7.7421875 1,1 0 0 0 7.7421875,8.9667969 1,1 0 0 0 8.7070313,8.7070313 Z M 5.8613281,9.1328125 c -0.089675,-9.941e-4 -0.1804129,0.0088 -0.2714844,0.033203 L 2.3320313,10.039063 c -0.535123,0.143385 -0.8523702,0.689486 -0.7089844,1.224609 0.1433857,0.535123 0.6914396,0.850417 1.2265625,0.707031 L 4.4648437,11.537109 4.03125,13.154297 c -0.1433858,0.535123 0.1719083,1.081223 0.7070312,1.224609 0.535123,0.143386 1.0812237,-0.171908 1.2246094,-0.707031 L 6.8359375,10.414063 C 6.9335475,10.049777 6.8185918,9.6795374 6.5664062,9.4355469 6.3834133,9.2464076 6.130352,9.1357947 5.8613281,9.1328125 Z m 2.921875,0.7890625 c -0.083662,0.00135 -0.1667509,0.014769 -0.2480468,0.037109 -0.031931,0.00877 -0.062576,0.021211 -0.09375,0.033203 0.02232,-0.0086 0.043686,-0.018441 0.066406,-0.025391 -0.03112,0.00841 -0.061766,0.017969 -0.091797,0.029297 -0.015962,0.00601 -0.031264,0.012727 -0.046875,0.019531 -0.063619,0.02776 -0.1251429,0.06128 -0.1816406,0.101563 -0.013553,0.0097 -0.025993,0.02091 -0.039063,0.03125 -0.1626755,0.128752 -0.2876443,0.306758 -0.3457031,0.523437 l -0.8730469,3.257813 c -0.1433858,0.535122 0.1719083,1.083176 0.7070312,1.226562 0.535123,0.143386 1.0812237,-0.171908 1.2246094,-0.707031 l 0.4335938,-1.615235 1.1816409,1.181641 c 0.391737,0.391737 1.022325,0.391737 1.414062,0 0.391737,-0.391737 0.391737,-1.022325 0,-1.414062 L 9.5058594,10.216797 C 9.3058527,10.01679 9.0441954,9.9176495 8.7832031,9.921875 Z"
     style="fill:#cba6f7;fill-opacity:1;stroke-width:24.5694;stroke-linecap:round;stroke-linejoin:round"
     id="path1" />
  <path
     d="M 3.315467,2.4381153 12.430596,11.4057 c 0.06088,0.05989 0.157811,0.15872 0.21651,0.220744 l 1.692382,1.788219 c 0.07703,0.08139 0.199662,0.07933 0.273918,-0.0046 l 0.3947,-0.446071 c 0.18299,-0.206808 0.148083,-0.503033 -0.07797,-0.661638 L 13.405212,11.232424 C 13.179161,11.073819 13.159945,10.792912 13.36229,10.605 L 14.224898,9.8039262 C 14.427243,9.6160146 14.367577,9.4552766 14.09163,9.4449079 l -0.333745,-0.01254 C 13.481938,9.4219989 13.392768,9.2346692 13.55872,9.0139551 l 2.533657,-3.3697449 c 0.165952,-0.2207141 0.08493,-0.3392247 -0.180966,-0.2647008 l -0.764052,0.2141445 c -0.265897,0.074524 -0.503914,-0.08779 -0.531626,-0.3625383 L 14.455708,3.6446034 C 14.427996,3.3698551 14.235001,3.2921519 14.024642,3.4710484 L 12.865249,4.4570401 C 12.65489,4.6359366 12.373224,4.5866396 12.236129,4.3469322 L 11.75601,3.5074538 c -0.137095,-0.2397074 -0.333,-0.2268412 -0.437566,0.028738 l -0.913016,2.231574 C 10.300862,6.0233442 10.09192,6.0442709 9.9387439,5.8145065 L 7.0515685,1.4837432 C 6.8983923,1.2539788 6.7160526,1.2838869 6.6443014,1.5505446 l -0.3302,1.227163 C 6.2423502,3.0443653 5.9739894,3.1835258 5.7147007,3.0885311 L 3.4252906,2.2497681 C 3.1660019,2.1547734 2.9572547,2.0821048 2.9590407,2.0874584 Z"
     style="display:inline;fill:#f9e2af;stroke-width:0.300553;stroke-linecap:round;stroke-linejoin:round"
     id="path9"
     transform="matrix(0.87161774,0,0,0.87161774,0.9438843,0.50685811)" />
</svg>
